M48
;Layer_Color=9474304
;FILE_FORMAT=2:5
INCH,LZ
;TYPE=PLATED
T1F00S00C0.02756
T2F00S00C0.02800
T3F00S00C0.03000
T4F00S00C0.03200
T5F00S00C0.03937
%
T01
X01118Y00935
X01114Y01136
X01116Y01308
X00921
X00919Y01136
X00923Y00935
T02
X00272Y0107
X00864Y01093
T03
X0061145Y0011594
X0110357
X01202Y00362
X0110357Y0060806
X0061145
T04
X02221Y00126
Y00426
X01254Y0084303
Y0114303
X00627Y00788
X00327
T05
X01367Y0012777
X016229
X01794Y0012877
X0204991
Y00302
X01794
X016229Y00301
X01367
X014873Y0066
X0207785
X02264Y01536
X00214Y00564
Y00364
Y00164
X0168415Y01805
X01881
X02264Y0173285
M30
