G04 Layer_Color=128*
%FSLAX24Y24*%
%MOIN*%
G70*
G01*
G75*
%ADD40C,0.0020*%
D40*
X22443Y15360D02*
X22837D01*
X22640Y15163D02*
Y15557D01*
X22443Y17328D02*
X22837D01*
X22640Y17132D02*
Y17525D01*
X1943Y5640D02*
X2337D01*
X2140Y5443D02*
Y5837D01*
X1943Y3640D02*
X2337D01*
X2140Y3443D02*
Y3837D01*
X1943Y1640D02*
X2337D01*
X2140Y1443D02*
Y1837D01*
X9072Y13080D02*
X9348D01*
X9210Y12942D02*
Y13218D01*
X11022Y13080D02*
X11298D01*
X11160Y12942D02*
Y13218D01*
X17743Y1288D02*
X18137D01*
X17940Y1091D02*
Y1485D01*
X20302Y1288D02*
X20696D01*
X20499Y1091D02*
Y1485D01*
X17743Y3020D02*
X18137D01*
X17940Y2823D02*
Y3217D01*
X20302Y3020D02*
X20696D01*
X20499Y2823D02*
Y3217D01*
X16032Y3010D02*
X16426D01*
X16229Y2813D02*
Y3207D01*
X13473Y3010D02*
X13867D01*
X13670Y2813D02*
Y3207D01*
X16032Y1278D02*
X16426D01*
X16229Y1081D02*
Y1475D01*
X13473Y1278D02*
X13867D01*
X13670Y1081D02*
Y1475D01*
X14676Y6600D02*
X15070D01*
X14873Y6403D02*
Y6797D01*
X20582Y6600D02*
X20975D01*
X20779Y6403D02*
Y6797D01*
X16645Y18050D02*
X17038D01*
X16841Y17853D02*
Y18247D01*
X18613Y18050D02*
X19007D01*
X18810Y17853D02*
Y18247D01*
X22050Y4260D02*
X22370D01*
X22210Y4100D02*
Y4420D01*
X22050Y1260D02*
X22370D01*
X22210Y1100D02*
Y1420D01*
X9092Y9350D02*
X9368D01*
X9230Y9212D02*
Y9488D01*
X11042Y9350D02*
X11318D01*
X11180Y9212D02*
Y9488D01*
X11002Y11360D02*
X11278D01*
X11140Y11222D02*
Y11498D01*
X9052Y11360D02*
X9328D01*
X9190Y11222D02*
Y11498D01*
X12380Y8430D02*
X12700D01*
X12540Y8270D02*
Y8590D01*
X12380Y11430D02*
X12700D01*
X12540Y11270D02*
Y11590D01*
X6110Y7880D02*
X6430D01*
X6270Y7720D02*
Y8040D01*
X3110Y7880D02*
X3430D01*
X3270Y7720D02*
Y8040D01*
X11870Y3620D02*
X12170D01*
X12020Y3470D02*
Y3770D01*
X10886Y1159D02*
X11186D01*
X11036Y1009D02*
Y1309D01*
X5964Y1159D02*
X6264D01*
X6114Y1009D02*
Y1309D01*
X5964Y6081D02*
X6264D01*
X6114Y5931D02*
Y6231D01*
X10886Y6081D02*
X11186D01*
X11036Y5931D02*
Y6231D01*
X8500Y10930D02*
X8780D01*
X8640Y10790D02*
Y11070D01*
X2580Y10700D02*
X2860D01*
X2720Y10560D02*
Y10840D01*
M02*
