G04 Layer_Color=2752767*
%FSLAX24Y24*%
%MOIN*%
G70*
G01*
G75*
%ADD40C,0.0020*%
%ADD41C,0.0027*%
D40*
X22560Y15280D02*
Y15440D01*
X22720D01*
Y15280D01*
X22560D01*
Y17249D02*
Y17408D01*
X22720D01*
Y17249D01*
X22560D01*
X2060Y5560D02*
Y5720D01*
X2220D01*
Y5560D01*
X2060D01*
Y3560D02*
Y3720D01*
X2220D01*
Y3560D01*
X2060D01*
Y1560D02*
Y1720D01*
X2220D01*
Y1560D01*
X2060D01*
X17860Y1208D02*
Y1368D01*
X18020D01*
Y1208D01*
X17860D01*
X20419D02*
Y1368D01*
X20579D01*
Y1208D01*
X20419D01*
X17860Y2940D02*
Y3100D01*
X18020D01*
Y2940D01*
X17860D01*
X20419D02*
Y3100D01*
X20579D01*
Y2940D01*
X20419D01*
X16149Y2930D02*
Y3090D01*
X16309D01*
Y2930D01*
X16149D01*
X13590D02*
Y3090D01*
X13750D01*
Y2930D01*
X13590D01*
X16149Y1198D02*
Y1358D01*
X16309D01*
Y1198D01*
X16149D01*
X13590D02*
Y1358D01*
X13750D01*
Y1198D01*
X13590D01*
X14793Y6520D02*
Y6680D01*
X14953D01*
Y6520D01*
X14793D01*
X20698D02*
Y6680D01*
X20859D01*
Y6520D01*
X20698D01*
X16761Y17970D02*
Y18130D01*
X16921D01*
Y17970D01*
X16761D01*
X18730D02*
Y18130D01*
X18890D01*
Y17970D01*
X18730D01*
X22210Y4180D02*
X22130Y4340D01*
X22290D01*
X22210Y4180D01*
Y1180D02*
X22130Y1340D01*
X22290D01*
X22210Y1180D01*
X12540Y8350D02*
X12460Y8510D01*
X12620D01*
X12540Y8350D01*
Y11350D02*
X12460Y11510D01*
X12620D01*
X12540Y11350D01*
X6270Y7800D02*
X6190Y7960D01*
X6350D01*
X6270Y7800D01*
X3270D02*
X3190Y7960D01*
X3350D01*
X3270Y7800D01*
X12020Y3540D02*
X12060Y3580D01*
X12100D01*
X12060Y3620D01*
X12100Y3660D01*
X12060D01*
X12020Y3700D01*
X11980Y3660D01*
X11940D01*
X11980Y3620D01*
X11940Y3580D01*
X11980D01*
X12020Y3540D01*
X11036Y1079D02*
X11076Y1119D01*
X11116D01*
X11076Y1159D01*
X11116Y1199D01*
X11076D01*
X11036Y1239D01*
X10996Y1199D01*
X10956D01*
X10996Y1159D01*
X10956Y1119D01*
X10996D01*
X11036Y1079D01*
X6114D02*
X6154Y1119D01*
X6194D01*
X6154Y1159D01*
X6194Y1199D01*
X6154D01*
X6114Y1239D01*
X6074Y1199D01*
X6034D01*
X6074Y1159D01*
X6034Y1119D01*
X6074D01*
X6114Y1079D01*
Y6001D02*
X6154Y6041D01*
X6194D01*
X6154Y6081D01*
X6194Y6121D01*
X6154D01*
X6114Y6161D01*
X6074Y6121D01*
X6034D01*
X6074Y6081D01*
X6034Y6041D01*
X6074D01*
X6114Y6001D01*
X11036D02*
X11076Y6041D01*
X11116D01*
X11076Y6081D01*
X11116Y6121D01*
X11076D01*
X11036Y6161D01*
X10996Y6121D01*
X10956D01*
X10996Y6081D01*
X10956Y6041D01*
X10996D01*
X11036Y6001D01*
X8560Y10850D02*
X8600Y10930D01*
X8560Y11010D01*
X8640Y10970D01*
X8720Y11010D01*
X8680Y10930D01*
X8720Y10850D01*
X8640Y10890D01*
X8560Y10850D01*
X2640Y10620D02*
X2680Y10700D01*
X2640Y10780D01*
X2720Y10740D01*
X2800Y10780D01*
X2760Y10700D01*
X2800Y10620D01*
X2720Y10660D01*
X2640Y10620D01*
D41*
X9290Y13080D02*
G03*
X9290Y13080I-80J0D01*
G01*
X11240D02*
G03*
X11240Y13080I-80J0D01*
G01*
X9310Y9350D02*
G03*
X9310Y9350I-80J0D01*
G01*
X11260D02*
G03*
X11260Y9350I-80J0D01*
G01*
X11220Y11360D02*
G03*
X11220Y11360I-80J0D01*
G01*
X9270D02*
G03*
X9270Y11360I-80J0D01*
G01*
M02*
