G04 Layer_Physical_Order=2*
G04 Layer_Color=16711680*
%FSLAX24Y24*%
%MOIN*%
G70*
G01*
G75*
%ADD13C,0.0150*%
%ADD14C,0.0100*%
%ADD15R,0.0500X0.0500*%
%ADD16C,0.0500*%
%ADD17C,0.1181*%
%ADD18R,0.1181X0.1181*%
%ADD19C,0.0512*%
%ADD20C,0.0787*%
%ADD21R,0.0787X0.0787*%
%ADD22C,0.0600*%
%ADD23C,0.0800*%
%ADD24C,0.0500*%
D13*
X2140Y1640D02*
X3200D01*
X3681Y1159D01*
X6114D01*
X2140Y3640D02*
X2160Y3620D01*
X12020D01*
X5674Y5640D02*
X6114Y6081D01*
X2140Y5640D02*
X5674D01*
X11160Y12560D02*
Y13080D01*
X9960Y11360D02*
X11160Y12560D01*
X9190Y11360D02*
X9960D01*
X9661Y9781D02*
X11358D01*
X9230Y9350D02*
X9661Y9781D01*
X11611Y9359D02*
X12540Y8430D01*
X11611Y9359D02*
Y9528D01*
X11358Y9781D02*
X11611Y9528D01*
X19930Y2451D02*
X20499Y3020D01*
X17474Y2451D02*
X19930D01*
X16915Y3010D02*
X17474Y2451D01*
X16229Y3010D02*
X16915D01*
D14*
X12040Y10930D02*
X12540Y11430D01*
X8640Y10930D02*
X12040D01*
X2720Y9790D02*
X5940Y6570D01*
X9210Y13080D02*
X9620Y13490D01*
X6270Y7880D02*
X9710D01*
X11036Y1159D02*
X11465Y730D01*
X9620Y13490D02*
X12980D01*
X22210Y4260D01*
X2720Y9790D02*
Y10700D01*
X5940Y6570D02*
X10546D01*
X11036Y6081D01*
X9710Y7880D02*
X11180Y9350D01*
X11465Y730D02*
X21680D01*
X22210Y1260D01*
D15*
X22640Y15360D02*
D03*
D16*
Y17328D02*
D03*
X8640Y10930D02*
D03*
X2720Y10700D02*
D03*
D17*
X2140Y5640D02*
D03*
Y3640D02*
D03*
D18*
Y1640D02*
D03*
D19*
X9210Y13080D02*
D03*
X11160D02*
D03*
X9230Y9350D02*
D03*
X11180D02*
D03*
X11140Y11360D02*
D03*
X9190D02*
D03*
D20*
X17940Y1288D02*
D03*
X20499D02*
D03*
Y3020D02*
D03*
X16229Y3010D02*
D03*
Y1278D02*
D03*
X13670D02*
D03*
D21*
X17940Y3020D02*
D03*
X13670Y3010D02*
D03*
D22*
X14873Y6600D02*
D03*
X20779D02*
D03*
X16841Y18050D02*
D03*
X18810D02*
D03*
X12020Y3620D02*
D03*
X11036Y1159D02*
D03*
X6114D02*
D03*
Y6081D02*
D03*
X11036D02*
D03*
D23*
X22210Y4260D02*
D03*
Y1260D02*
D03*
X12540Y8430D02*
D03*
Y11430D02*
D03*
X6270Y7880D02*
D03*
X3270D02*
D03*
D24*
X18810Y18050D02*
X19532Y17328D01*
X22640D01*
X16841Y18050D02*
X19531Y15360D01*
X22640D01*
M02*
